<svg width="159" height="159" viewBox="0 0 159 159" fill="none" xmlns="http://www.w3.org/2000/svg">
<path d="M25.8192 143.811C28.2823 143.836 31.4721 143.436 34.6512 141.742C38.0909 139.908 42.714 135.922 41.8557 133.072C41.5352 132.008 40.4266 131.022 39.3754 131.013C37.8223 130.998 37.4509 133.124 34.5647 135.214C34.0313 135.6 31.2734 137.597 30.0687 136.733C29.4698 136.304 29.3754 135.253 29.5488 134.477C30.056 132.207 32.8923 132.105 35.8112 129.86C38.7706 127.584 41.4432 123.39 40.4069 120.3C39.8115 118.524 37.9524 116.997 36.617 117.26C36.0463 117.372 35.6529 117.795 33.6374 121.292C31.9832 124.163 31.5968 125.008 30.6778 125.212C29.7318 125.422 28.3345 124.927 27.8722 123.972C26.668 121.485 33.0982 118.548 34.2454 111.993C34.7594 109.056 34.3516 104.597 31.7554 103.417C30.0003 102.619 27.3318 103.358 26.2497 104.937C25.2742 106.36 26.1952 107.579 25.2519 110.888C24.9656 111.893 24.3766 113.959 23.5209 113.993C22.5164 114.034 21.6454 111.254 21.4471 110.578C19.9542 105.49 22.3971 103.162 20.7881 100.613C19.5333 98.6248 16.5075 97.6006 13.9733 98.3209C11.7558 98.9512 9.84913 100.936 9.53614 103.142C9.21765 105.386 10.913 107.8 14.3036 112.629C15.9115 114.919 17.2137 116.485 16.9428 118.594C16.8108 119.622 16.2718 121.036 15.5212 121.102C13.8644 121.249 13.6498 114.611 9.87612 113.251C7.94453 112.555 5.3951 113.355 4.15525 115.041C2.63615 117.107 3.24548 120.283 4.76234 122.06C6.74139 124.379 9.11066 122.963 12.988 125.611C14.7081 126.785 17.361 129.194 16.7848 130.937C16.534 131.696 15.6533 132.382 14.7524 132.404C12.7329 132.452 12.3661 129.116 9.28111 127.388C7.05849 126.143 3.84654 125.969 2.96901 127.207C1.73019 128.954 5.16886 133.481 7.03078 135.512C9.28153 137.967 14.6823 142.725 25.8192 143.811Z" fill="url(#paint0_linear_5_51266)"/>
<g opacity="0.5">
<path d="M24.9367 142.68C25.7537 137.21 23.1185 125.692 20.9455 120.167C18.8281 114.783 17.0898 106.403 17.0725 106.319L16.666 106.403C16.6833 106.487 18.4287 114.901 20.5593 120.319C22.7157 125.802 25.3331 137.216 24.5262 142.619L24.9367 142.68Z" fill="white"/>
</g>
<path d="M31.5202 145.042C33.5907 142.65 36.7054 138.278 37.7426 132.149C38.17 129.624 39.0047 124.692 36.3497 120.135C35.0264 117.863 32.0973 114.417 29.8455 115.134C28.3965 115.595 27.33 117.748 27.5722 119.479C27.8164 121.224 29.2473 121.512 30.5612 124.554C31.0473 125.68 31.5997 127 31.0249 127.666C30.5448 128.223 29.3624 128.226 28.5152 127.791C26.7651 126.891 27.5351 124.681 25.717 122.883C24.4242 121.605 22.1454 120.855 21.0565 121.709C20.1111 122.451 20.0914 124.381 20.7475 125.727C21.7982 127.882 24.0644 127.481 25.3065 129.846C25.8576 130.895 26.1783 132.434 25.5653 132.976C24.8666 133.594 23.0409 132.842 21.9041 131.988C20.4032 130.86 20.4384 129.807 19.4036 129.582C18.2493 129.331 16.6903 130.312 16.352 131.521C15.8781 133.215 17.825 135.262 19.4262 136.219C21.4761 137.444 23.1223 136.981 24.0422 138.486C24.3798 139.039 24.6559 139.916 24.295 140.401C23.7801 141.093 22.1779 140.706 21.1141 140.448C18.5251 139.823 17.8879 138.807 16.9062 139.185C15.9123 139.568 15.2797 141.105 15.592 142.251C15.7656 142.888 16.3674 143.904 19.7196 144.807C22.0661 145.439 26.0448 146.092 31.5202 145.042Z" fill="url(#paint1_linear_5_51266)"/>
<path d="M138.515 146.147L52.4437 140.203C52.3401 140.193 52.236 140.193 52.1324 140.202L0.873791 142.524C-0.352352 142.635 -0.296623 145.846 1.09514 146.021L81.6354 156.806C81.9651 156.846 82.2986 156.845 82.628 156.803L138.356 148.972C139.1 148.843 139.372 146.209 138.515 146.147Z" fill="url(#paint2_linear_5_51266)"/>
<path d="M138.344 146.052L52.4434 137.946C52.3398 137.936 52.2357 137.936 52.132 137.945L1.12223 142.423C0.185601 142.505 0.16169 143.866 1.09476 143.981L81.635 153.92C81.9647 153.961 82.2982 153.96 82.6276 153.917L138.356 146.715C138.751 146.664 138.741 146.089 138.344 146.052Z" fill="url(#paint3_linear_5_51266)"/>
<path d="M80.7835 152.949C80.9026 152.949 81.023 152.942 81.1412 152.926L131.089 146.471C131.271 146.448 131.267 146.183 131.084 146.165L54.3828 138.942C54.3657 138.941 54.3485 138.94 54.3315 138.94C54.3156 138.94 54.2999 138.941 54.2841 138.942L5.5253 143.223C5.299 143.243 5.29321 143.571 5.51865 143.599L80.4418 152.928C80.5547 152.942 80.6696 152.949 80.7835 152.949Z" fill="url(#paint4_linear_5_51266)"/>
<path d="M109.2 149.844C109.218 149.993 109.688 150.059 110.249 149.99C110.811 149.922 111.251 149.746 111.233 149.597C111.215 149.448 110.745 149.383 110.184 149.451C109.622 149.519 109.182 149.695 109.2 149.844Z" fill="url(#paint5_linear_5_51266)"/>
<path d="M68.5811 154.443L76.3125 155.459C76.8773 155.533 77.3398 155.257 77.3398 154.841C77.3398 154.426 76.8773 154.035 76.3125 153.969L68.5811 153.066C68.1035 153.01 67.7197 153.27 67.7197 153.647C67.7197 154.024 68.1034 154.38 68.5811 154.443Z" fill="url(#paint6_linear_5_51266)"/>
<path d="M60.136 153.333L66.5028 154.17C66.9643 154.23 67.3419 153.976 67.3419 153.6C67.3419 153.225 66.9643 152.877 66.5028 152.823L60.136 152.079C59.7396 152.033 59.4209 152.274 59.4209 152.617C59.4209 152.961 59.7396 153.281 60.136 153.333Z" fill="url(#paint7_linear_5_51266)"/>
<path d="M49.4656 151.932L54.3094 152.568C54.6571 152.614 54.9412 152.387 54.9412 152.062C54.9412 151.736 54.6571 151.439 54.3094 151.398L49.4656 150.832C49.161 150.797 48.916 151.012 48.916 151.314C48.916 151.615 49.161 151.892 49.4656 151.932Z" fill="url(#paint8_linear_5_51266)"/>
<path opacity="0.6" d="M40.5013 142.947C47.9864 144.279 52.9577 146.993 63.6992 147.21C73.0041 147.398 73.0731 145.254 83.8877 144.577C98.0557 143.689 101.749 147.131 116.239 146.834C120.018 146.757 124.964 146.415 130.816 145.341L138.345 146.052C138.741 146.089 138.751 146.664 138.356 146.715L82.6283 153.917C82.2989 153.96 81.9654 153.961 81.6357 153.92L13.4648 145.508C25.1622 141.607 34.1189 141.81 40.5013 142.947Z" fill="white"/>
<path d="M58.2432 146.818C53.3455 146.818 48.3877 145.951 48.3877 144.294C48.3877 142.637 53.3456 141.77 58.2432 141.77C63.1409 141.77 68.0987 142.637 68.0987 144.294C68.0987 145.951 63.1409 146.818 58.2432 146.818ZM58.2432 142.392C51.667 142.392 49.0102 143.734 49.0102 144.294C49.0102 144.854 51.667 146.196 58.2432 146.196C64.8194 146.196 67.4762 144.854 67.4762 144.294C67.4762 143.734 64.8194 142.392 58.2432 142.392Z" fill="white"/>
<path opacity="0.6" d="M58.2436 145.3C60.6395 145.3 62.5819 144.85 62.5819 144.294C62.5819 143.738 60.6395 143.288 58.2436 143.288C55.8476 143.288 53.9053 143.738 53.9053 144.294C53.9053 144.85 55.8476 145.3 58.2436 145.3Z" fill="white"/>
<path opacity="0.29" d="M119.492 55.5012L68.1607 139.429L67.6918 140.195L67.0694 141.214L65.9778 142.998L65.1852 144.293C65.1852 145.156 62.2676 145.858 58.601 145.901C58.4828 145.903 58.3645 145.903 58.2441 145.903C54.4094 145.903 51.303 145.183 51.303 144.293L50.5767 142.975L49.1221 140.338L48.6262 139.437L48.0037 138.309L44.9491 132.766L39.6868 123.223L33.7583 112.468L33.167 111.393L26.6159 99.5072L22.4513 91.9539L4.01855 58.5164C8.28488 55.2482 18.241 48.1722 32.754 43.3041C34.91 42.5799 37.1655 41.9055 39.5207 41.2996C40.0644 41.1584 40.6143 41.0215 41.1704 40.8887C41.5875 40.7891 42.0067 40.6915 42.428 40.5982C42.7599 40.5214 43.0961 40.4488 43.4323 40.3762C43.4343 40.3762 43.4343 40.3762 43.4365 40.3762C48.456 39.3013 53.872 38.5563 59.651 38.3116C60.3461 38.2805 61.0476 38.2575 61.7551 38.2431C72.7903 38.0106 82.6199 39.6624 90.9761 42.0819C91.2583 42.1608 91.5384 42.2438 91.8145 42.3268C91.8953 42.3516 91.9763 42.3745 92.0552 42.3994C92.9453 42.6671 93.819 42.9452 94.6739 43.2294C97.0125 44.0055 99.2183 44.8335 101.285 45.6842C110.004 49.2719 116.248 53.2726 119.492 55.5012Z" fill="url(#paint9_linear_5_51266)"/>
<path d="M65.9668 88.9137H53.1819C52.0519 88.9137 51.1357 87.9976 51.1357 86.8676V76.8955C51.1357 75.7655 52.0519 74.8494 53.1819 74.8494H65.9668C67.0969 74.8494 68.013 75.7655 68.013 76.8955V86.8676C68.013 87.9977 67.0969 88.9137 65.9668 88.9137Z" fill="#D8DEE8"/>
<path d="M59.066 79.9535C76.774 79.9535 91.1291 68.9448 91.1291 55.3649C91.1291 41.785 76.774 30.7764 59.066 30.7764C41.3581 30.7764 27.0029 41.785 27.0029 55.3649C27.0029 68.9448 41.3581 79.9535 59.066 79.9535Z" fill="white"/>
<path d="M81.4731 68.6331H37.6743C35.9805 68.6331 34.6074 67.26 34.6074 65.5662V48.5616C34.6074 47.7963 35.2277 47.176 35.993 47.176H83.1544C83.9196 47.176 84.5399 47.7963 84.5399 48.5616V65.5662C84.54 67.26 83.1669 68.6331 81.4731 68.6331Z" fill="url(#paint10_linear_5_51266)"/>
<path d="M68.4057 73.8247H49.7267C48.0757 73.8247 46.7373 72.4863 46.7373 70.8353V56.2659C46.7373 54.6149 48.0757 53.2765 49.7267 53.2765H68.4057C70.0567 53.2765 71.3951 54.6149 71.3951 56.2659V70.8353C71.3951 72.4863 70.0567 73.8247 68.4057 73.8247Z" fill="url(#paint11_linear_5_51266)"/>
<path d="M80.0929 63.812H38.7364C37.532 63.812 36.5557 62.8357 36.5557 61.6313V50.208C36.5557 49.4428 37.176 48.8225 37.9412 48.8225H80.8881C81.6533 48.8225 82.2736 49.4428 82.2736 50.208V61.6313C82.2737 62.8357 81.2973 63.812 80.0929 63.812Z" fill="url(#paint12_linear_5_51266)"/>
<path d="M54.4711 58.4969C54.7632 58.08 54.9441 57.6111 54.9441 57.1048C54.9441 55.4662 53.2077 54.1377 51.0658 54.1377C48.9239 54.1377 47.1875 55.4661 47.1875 57.1048C47.1875 57.6111 47.3684 58.08 47.6604 58.4969H54.4711Z" fill="#D8DEE8"/>
<path d="M74.0043 58.4969C74.2964 58.08 74.4777 57.6111 74.4777 57.1048C74.4777 55.4662 72.7414 54.1377 70.599 54.1377C68.4571 54.1377 66.7207 55.4661 66.7207 57.1048C66.7207 57.6111 66.9016 58.08 67.1936 58.4969H74.0043Z" fill="#D8DEE8"/>
<path d="M28.4406 56.9157H25.4772C25.1414 56.9157 24.8691 56.6434 24.8691 56.3076V47.2738C24.8691 46.938 25.1414 46.6658 25.4772 46.6658H28.4406C28.7765 46.6658 29.0487 46.938 29.0487 47.2738V56.3076C29.0487 56.6434 28.7765 56.9157 28.4406 56.9157Z" fill="url(#paint13_linear_5_51266)"/>
<path d="M92.6106 56.9157H89.6471C89.3113 56.9157 89.0391 56.6434 89.0391 56.3076V47.2738C89.0391 46.938 89.3113 46.6658 89.6471 46.6658H92.6106C92.9464 46.6658 93.2186 46.938 93.2186 47.2738V56.3076C93.2186 56.6434 92.9463 56.9157 92.6106 56.9157Z" fill="url(#paint14_linear_5_51266)"/>
<path d="M81.235 89.5789V104.47C81.235 106.733 80.3739 108.796 78.9608 110.348C77.363 112.106 75.0576 113.21 72.4949 113.21H47.0214C42.1948 113.21 38.2812 109.296 38.2812 104.47V89.5789C38.2812 86.9539 39.4392 84.5987 41.2714 82.9968C42.807 81.6543 44.8197 80.8387 47.0214 80.8387H72.4949C77.3215 80.8387 81.235 84.7523 81.235 89.5789Z" fill="white"/>
<path d="M71.4827 100.656C75.5511 100.656 78.8491 97.3576 78.8491 93.2892C78.8491 89.2208 75.5511 85.9227 71.4827 85.9227C67.4143 85.9227 64.1162 89.2208 64.1162 93.2892C64.1162 97.3576 67.4143 100.656 71.4827 100.656Z" fill="url(#paint15_linear_5_51266)"/>
<path d="M72.9348 96.0906C72.9348 96.9501 72.2381 97.6469 71.3786 97.6469C70.519 97.6469 69.8223 96.9501 69.8223 96.0906V90.6955C69.8223 89.8359 70.519 89.1392 71.3786 89.1392C72.2381 89.1392 72.9348 89.836 72.9348 90.6955V96.0906Z" fill="white"/>
<path d="M75.6327 93.3929C75.6327 94.2525 74.936 94.9492 74.0764 94.9492H68.6813C67.8218 94.9492 67.125 94.2524 67.125 93.3929C67.125 92.5334 67.8218 91.8367 68.6813 91.8367H74.0764C74.9359 91.8367 75.6327 92.5334 75.6327 93.3929Z" fill="white"/>
<path opacity="0.3" d="M78.9608 110.348C77.363 112.106 75.0576 113.21 72.4949 113.21H47.0214C42.1948 113.21 38.2812 109.296 38.2812 104.47V89.579C38.2812 86.9541 39.4392 84.5989 41.2714 82.9969C40.4975 88.5311 41.0618 96.6405 50.1776 99.0309C60.5301 101.745 77.4564 103.801 78.9608 110.348Z" fill="#D8DEE8"/>
<path d="M144.126 25.9347C144.131 25.8718 144.135 25.8088 144.139 25.7459C144.148 25.5996 144.156 25.4533 144.161 25.3073C144.164 25.2388 144.166 25.1703 144.168 25.1019C144.172 24.9472 144.173 24.7927 144.172 24.6384C144.172 24.5869 144.173 24.5353 144.172 24.4839C144.169 24.2802 144.163 24.0769 144.152 23.8741C144.15 23.8309 144.146 23.788 144.143 23.7448C144.134 23.5836 144.122 23.4226 144.107 23.262C144.101 23.196 144.094 23.1301 144.087 23.0642C144.073 22.9208 144.056 22.7778 144.037 22.6349C144.029 22.5718 144.021 22.5086 144.012 22.4455C143.987 22.2658 143.959 22.0867 143.927 21.908C143.923 21.8869 143.92 21.8657 143.917 21.8445C143.881 21.6438 143.84 21.4439 143.796 21.2445C143.784 21.19 143.771 21.1358 143.759 21.0814C143.725 20.9347 143.69 20.7884 143.652 20.6424C143.636 20.579 143.619 20.5156 143.602 20.4522C143.562 20.3043 143.52 20.1569 143.477 20.01C143.461 19.9594 143.447 19.9087 143.432 19.8582C143.371 19.6612 143.307 19.4648 143.239 19.2694C143.232 19.2485 143.224 19.228 143.217 19.2071C143.156 19.0335 143.092 18.8606 143.025 18.6884C143.003 18.6327 142.981 18.5772 142.959 18.5216C142.902 18.3795 142.844 18.238 142.784 18.097C142.76 18.0412 142.736 17.9853 142.712 17.9297C142.64 17.7656 142.565 17.6022 142.488 17.4395C142.476 17.4136 142.464 17.3876 142.452 17.3618C142.36 17.1704 142.265 16.98 142.166 16.7907C142.146 16.7529 142.126 16.7155 142.106 16.6778C142.026 16.5279 141.945 16.3785 141.861 16.23C141.832 16.1775 141.802 16.1252 141.772 16.0729C141.69 15.9305 141.606 15.7889 141.52 15.6479C141.494 15.6044 141.468 15.5607 141.441 15.5173C141.214 15.15 140.974 14.7876 140.721 14.4304C140.691 14.3884 140.661 14.3467 140.631 14.3048C140.531 14.1662 140.43 14.0284 140.327 13.8914C140.293 13.8464 140.259 13.8014 140.224 13.7566C140.108 13.6054 139.991 13.4553 139.87 13.3063C139.852 13.2837 139.834 13.2609 139.816 13.2385C139.672 13.0616 139.525 12.8863 139.375 12.7126C139.36 12.6949 139.344 12.6777 139.328 12.66C139.197 12.5091 139.063 12.3594 138.927 12.211C138.891 12.1713 138.854 12.1319 138.817 12.0924C138.694 11.9593 138.569 11.8273 138.442 11.6963C138.408 11.6616 138.375 11.6267 138.341 11.5922C138.017 11.2629 137.682 10.9401 137.335 10.6243C137.306 10.5977 137.276 10.5714 137.247 10.5449C137.103 10.4147 136.957 10.2857 136.809 10.1579C136.768 10.1232 136.728 10.0886 136.688 10.054C136.534 9.9229 136.378 9.79315 136.22 9.66473C136.195 9.64438 136.171 9.62367 136.146 9.60339C135.773 9.3021 135.389 9.00879 134.995 8.72314C134.955 8.69446 134.915 8.66614 134.875 8.63765C134.715 8.52233 134.552 8.40834 134.388 8.29573C134.347 8.26784 134.307 8.23976 134.266 8.21211C130.188 5.44683 125.091 3.51451 119.434 2.8599C104.515 1.13359 91.355 8.94243 90.0407 20.3015C89.5887 24.2078 90.5964 28.0252 92.7202 31.4232L89.3134 38.0501C88.9917 38.6758 89.4768 39.4128 90.1788 39.3645C91.0662 39.3034 92.2495 39.2227 93.5348 39.1375C93.5635 39.1356 93.5923 39.1336 93.6211 39.1318C93.7752 39.1216 93.9313 39.1113 94.0877 39.101C94.1668 39.0958 94.2456 39.0906 94.3251 39.0854C94.4527 39.077 94.5812 39.0687 94.71 39.0603C94.7834 39.0555 94.8565 39.0508 94.9301 39.0459C95.124 39.0334 95.3187 39.0207 95.5134 39.0082C95.59 39.0033 95.6666 38.9985 95.7433 38.9936C95.8661 38.9857 95.989 38.9779 96.1116 38.9701C96.2026 38.9643 96.2933 38.9586 96.3841 38.9529C96.5033 38.9453 96.622 38.9379 96.7405 38.9305C96.8255 38.9252 96.9106 38.9198 96.995 38.9146C97.1336 38.906 97.2711 38.8975 97.4082 38.8891C97.4677 38.8854 97.5279 38.8817 97.5869 38.8781C97.7718 38.8668 97.954 38.8558 98.1345 38.8449C98.2145 38.8402 98.2927 38.8355 98.3717 38.8309C98.4889 38.8239 98.6053 38.817 98.7199 38.8103C98.791 38.8062 98.8612 38.8021 98.9312 38.7981C99.0533 38.791 99.1733 38.7841 99.2918 38.7774C99.3531 38.774 99.415 38.7704 99.4752 38.767C99.6491 38.7573 99.8201 38.7478 99.9844 38.739C104.038 41.4531 109.083 43.3477 114.675 43.9947C129.594 45.721 142.754 37.9122 144.068 26.5531C144.092 26.3466 144.111 26.1406 144.126 25.9347Z" fill="url(#paint16_linear_5_51266)"/>
<path d="M94.2525 31.6007C92.1286 28.2027 91.1208 24.3853 91.5728 20.479C92.8872 9.11993 106.047 1.31108 120.967 3.03739C135.886 4.7637 146.915 15.3715 145.601 26.7305C144.286 38.0895 131.126 45.8984 116.207 44.1721C110.615 43.5251 105.57 41.6305 101.517 38.9164C98.6115 39.0728 94.0949 39.3777 91.711 39.542C91.0091 39.5903 90.5239 38.8532 90.8456 38.2275L94.2525 31.6007Z" fill="url(#paint17_linear_5_51266)"/>
<g opacity="0.3">
<path d="M103.301 26.2466C109.653 24.4016 115.692 30.5465 120.29 27.2793C124.925 23.9857 121.255 15.9891 125.892 11.1296C128.103 8.81256 131.462 7.984 135.195 7.99052C142.236 12.514 146.441 19.4685 145.601 26.7304C144.287 38.0895 131.127 45.8983 116.207 44.172C110.616 43.525 105.571 41.6304 101.517 38.9163C99.2249 39.0398 95.9302 39.2555 93.4707 39.4218C96.3126 30.418 99.9952 27.2068 103.301 26.2466Z" fill="url(#paint18_linear_5_51266)"/>
</g>
<path d="M118.271 13.2568L111.116 15.8329C113.309 18.3195 114.708 21.3193 115.406 24.5473L121.541 22.3384C124.038 21.4391 125.346 18.66 124.447 16.1625C123.547 13.6651 120.768 12.3575 118.271 13.2568Z" fill="white"/>
<path opacity="0.49" d="M118.903 19.2601C118.137 20.3888 116.714 20.5814 115.694 20.4154C113.365 19.8682 110.368 19.2418 108.786 20.7707C106.902 22.6174 104.782 23.808 102.131 23.8169C102.163 23.9315 102.197 24.0457 102.238 24.1593C103.138 26.6567 105.917 27.9643 108.414 27.0651L121.541 22.3384C124.039 21.4391 125.346 18.66 124.447 16.1625C124.28 15.6994 124.049 15.2774 123.766 14.9026C121.868 15.9173 120.211 17.3529 118.903 19.2601Z" fill="#D8DEE8"/>
<path d="M111.116 15.833L105.144 17.9835C102.647 18.8828 101.339 21.6619 102.238 24.1593C103.137 26.6568 105.917 27.9644 108.414 27.0651L115.406 24.5474C114.708 21.3194 113.309 18.3196 111.116 15.833Z" fill="url(#paint19_linear_5_51266)"/>
<path opacity="0.3" d="M113.876 20.0289C111.97 19.6903 109.977 19.6196 108.786 20.7706C106.902 22.6173 104.782 23.8079 102.131 23.8169C102.146 23.8697 102.161 23.9224 102.177 23.9751C102.197 24.0366 102.216 24.0981 102.238 24.1592C103.138 26.6567 105.917 27.9643 108.414 27.065L115.406 24.5473C115.067 22.9759 114.559 21.4593 113.876 20.0289Z" fill="url(#paint20_linear_5_51266)"/>
<path d="M130.422 23.5916L122.911 22.4053C123.636 25.6404 123.417 28.9431 122.476 32.1086L128.916 33.1258C131.538 33.5399 134.022 31.7335 134.436 29.1116C134.85 26.4897 133.044 24.0057 130.422 23.5916Z" fill="white"/>
<path opacity="0.49" d="M128.085 29.1575C126.87 29.778 125.53 29.2617 124.717 28.6255C122.939 27.0247 120.614 25.0327 118.491 25.6114C115.951 26.323 113.519 26.3459 111.191 25.0774C111.164 25.1931 111.139 25.31 111.121 25.4292C110.707 28.0512 112.513 30.5351 115.135 30.9492L128.916 33.1258C131.538 33.5398 134.022 31.7335 134.436 29.1115C134.513 28.6253 134.513 28.1439 134.446 27.6795C132.294 27.655 130.15 28.1156 128.085 29.1575Z" fill="#D8DEE8"/>
<path d="M122.911 22.4053L116.641 21.4151C114.019 21.001 111.535 22.8074 111.121 25.4293C110.707 28.0513 112.513 30.5352 115.135 30.9493L122.476 32.1087C123.417 28.9431 123.636 25.6404 122.911 22.4053Z" fill="url(#paint21_linear_5_51266)"/>
<path opacity="0.3" d="M123.31 27.4116C121.802 26.1972 120.089 25.1757 118.491 25.6114C115.951 26.323 113.519 26.3459 111.191 25.0774C111.179 25.1308 111.167 25.1844 111.156 25.2384C111.143 25.3016 111.131 25.3649 111.121 25.4292C110.707 28.0511 112.513 30.5351 115.135 30.9491L122.476 32.1085C122.934 30.5676 123.219 28.994 123.31 27.4116Z" fill="url(#paint22_linear_5_51266)"/>
<path d="M75.5804 22.5901C75.5804 22.5898 75.5804 22.5894 75.5804 22.5891L78.1197 22.5997C78.9484 22.6031 79.5553 21.9853 79.5553 21.2206V2.76509C79.5553 2.00035 78.9183 1.34339 78.0895 1.29291L56.8989 0.00337302C55.9698 -0.0532006 55.209 0.560535 55.209 1.37509V21.0324C55.209 21.798 55.8693 22.4289 56.7202 22.5051C56.7773 22.5105 56.8915 22.5134 56.9501 22.5136L75.5804 22.5901Z" fill="url(#paint23_linear_5_51266)"/>
<path d="M80.7145 2.76509V21.2206C80.7145 21.9853 80.086 22.603 79.2573 22.5997L58.0671 22.513C57.1379 22.5092 56.3682 21.8469 56.3682 21.0323V1.37509C56.3682 0.560535 57.1586 -0.0532006 58.0877 0.00337302L79.266 1.29291C80.0947 1.34339 80.7145 2.00035 80.7145 2.76509Z" fill="url(#paint24_linear_5_51266)"/>
<path opacity="0.7" d="M65.4779 15.9399L61.5029 15.8545V9.91016L65.4779 10.0572V15.9399Z" fill="white"/>
<path opacity="0.7" d="M70.9436 16.0537L66.9688 15.9731V7.24268L70.9436 7.41216V16.0537Z" fill="white"/>
<path opacity="0.7" d="M76.2429 16.1688L72.4336 16.0872V5.00195L76.2429 5.19559V16.1688Z" fill="white"/>
<path opacity="0.7" d="M76.9057 18.629L60.6748 18.3928V17.0557L76.9057 17.347V18.629Z" fill="white"/>
<path opacity="0.3" d="M76.6964 22.5901L58.0877 22.5136C57.1586 22.5098 56.3682 21.8469 56.3682 21.0324V1.37509C56.3682 0.560535 57.1586 -0.0532006 58.0877 0.00337302L61.1833 0.190844C63.0111 2.34287 64.0575 5.24093 63.4923 8.49726C63.3984 9.04271 63.4763 9.53671 63.6843 9.99202C64.0116 10.7114 64.6734 11.3344 65.5289 11.9172C65.974 12.2213 66.4742 12.5145 67.0053 12.8043C68.2281 13.4695 69.6282 14.1188 70.9733 14.8487C71.4623 15.1135 71.9437 15.3905 72.4081 15.6818C72.6236 15.8174 72.8365 15.9563 73.0437 16.0997C73.5842 16.4721 74.0898 16.8709 74.5439 17.3041C74.9648 17.7064 75.3413 18.1399 75.657 18.6103C76.39 19.7005 76.8005 20.9958 76.6964 22.5901Z" fill="url(#paint25_linear_5_51266)"/>
<path d="M147.857 50.1557L128.698 49.8816C127.862 49.8697 127.156 50.5014 127.156 51.2944V70.432C127.156 71.225 127.854 71.8295 128.69 71.794L144.391 71.1183H144.396L147.855 70.9817C148.607 70.9498 149.232 70.3277 149.232 69.5797V51.5294C149.232 50.7814 148.609 50.1664 147.857 50.1557Z" fill="url(#paint26_linear_5_51266)"/>
<path d="M150.466 51.5296V69.5799C150.466 70.3279 149.874 70.9595 149.122 70.9914L130.016 71.8038C129.18 71.8393 128.527 71.2253 128.527 70.4323V51.2946C128.527 50.5016 129.187 49.8699 130.023 49.8819L149.132 50.1559C149.884 50.1667 150.466 50.7816 150.466 51.5296Z" fill="url(#paint27_linear_5_51266)"/>
<path opacity="0.7" d="M146.675 58.969C146.675 57.8906 146.249 56.8778 145.476 56.1158C144.7 55.3517 143.66 54.9275 142.551 54.9262C141.525 54.9248 140.55 55.284 139.779 55.9445C139.015 55.3207 138.053 54.9799 137.037 54.9787C135.931 54.9775 134.884 55.3763 134.074 56.1071C134.041 56.1366 134.009 56.1661 133.977 56.1969C132.316 57.7895 132.255 60.3341 133.837 61.9651L137.841 65.7715C138.356 66.2551 139.04 66.51 139.765 66.4887C140.486 66.4674 141.162 66.1745 141.669 65.6666L145.469 61.8524C145.471 61.849 145.473 61.8466 145.476 61.8443C145.49 61.8315 145.502 61.8175 145.515 61.8047L145.644 61.6745L145.639 61.6711C146.309 60.9192 146.675 59.9687 146.675 58.969ZM144.038 61.2195L142.057 61.2504C141.999 61.2513 141.943 61.1322 141.897 61.1005L141.053 60.4745L140.474 61.3748L138.937 63.763C138.885 63.8444 138.795 63.8697 138.7 63.8719C138.675 63.8724 138.569 63.869 138.544 63.8626C138.424 63.8315 138.263 63.7268 138.263 63.6055V58.8699L137.638 59.9654L137.13 60.8277C137.079 60.9092 137.025 60.978 136.928 60.9794L133.392 61.0315C133.234 61.0339 133.107 60.8928 133.107 60.7403C133.107 60.5879 133.239 60.4431 133.397 60.4411L136.783 60.3965L137.222 59.7127L138.462 57.7747C138.528 57.6717 138.642 57.6239 138.761 57.6558C138.882 57.6888 138.948 57.7949 138.948 57.916V62.6509L139.948 61.1098L140.73 59.8989C140.77 59.8347 140.84 59.7898 140.915 59.775C140.99 59.7591 141.07 59.8587 141.132 59.9008L142.143 60.6721L144.038 60.6455C144.188 60.6433 144.31 60.7804 144.31 60.9284C144.31 61.0764 144.189 61.2171 144.038 61.2195Z" fill="white"/>
<path opacity="0.3" d="M145.694 71.1373L130.023 71.8034C129.187 71.8389 128.527 71.2249 128.527 70.4319V51.2942C128.527 50.5012 129.187 49.8696 130.023 49.8815L133.429 49.9308C134.158 51.5913 134.457 53.5412 134.116 55.6777C134.092 55.8251 134.078 55.9691 134.076 56.107C134.064 57.6701 135.419 58.7229 137.223 59.7126C137.377 59.7973 137.534 59.8808 137.693 59.9653C137.915 60.0805 138.143 60.1967 138.373 60.3138C138.572 60.4137 138.773 60.5135 138.974 60.6143C139.3 60.7761 139.63 60.941 139.961 61.109C140.133 61.1958 140.303 61.2847 140.473 61.3748C141.663 61.9983 142.83 62.6872 143.788 63.5394C145.649 65.194 146.736 67.4732 145.694 71.1373Z" fill="url(#paint28_linear_5_51266)"/>
<path d="M121.272 92.6974L119.875 87.4885C119.819 87.2805 119.661 87.1153 119.456 87.0501L117.015 86.2751C117.012 86.2742 117.011 86.2739 117.005 86.2721L116.986 86.2661C116.979 86.2638 116.972 86.2638 116.965 86.2625C116.96 86.2614 116.955 86.2607 116.949 86.2597C116.944 86.2591 116.939 86.2576 116.933 86.2575C116.808 86.2379 116.573 86.2388 116.385 86.4686C116.524 86.5695 116.65 86.5642 116.753 86.52L118.499 92.1393L121.032 92.9276C121.098 92.9481 121.17 92.9311 121.22 92.8833C121.27 92.8353 121.29 92.7641 121.272 92.6974Z" fill="url(#paint29_linear_5_51266)"/>
<path d="M120.855 92.6961L119.48 87.6525C119.424 87.4471 119.268 87.2838 119.065 87.218L116.564 86.4048C116.508 86.3869 116.447 86.4012 116.406 86.4422C116.364 86.4831 116.349 86.5437 116.366 86.5994L118.018 91.9256C118.059 92.0593 118.164 92.1641 118.298 92.2057L120.616 92.927C120.682 92.9476 120.754 92.9304 120.804 92.8824C120.854 92.8343 120.873 92.7629 120.855 92.6961Z" fill="url(#paint30_linear_5_51266)"/>
<path d="M114.019 90.7782C112.983 91.6898 114.877 98.5216 120.253 100.558C124.492 102.164 129.55 100.383 131.977 96.8587C133.376 94.8266 134.643 91.198 133.089 89.4335C133.018 89.3533 132.141 88.3868 130.889 88.4555C127.99 88.6147 127.803 94.0641 124.695 94.7309C123.964 94.8876 123.702 94.6451 117.599 91.9842C114.655 90.7005 114.266 90.5605 114.019 90.7782Z" fill="url(#paint31_linear_5_51266)"/>
<path d="M121.932 93.4966C121.932 93.4966 122.191 92.485 121.569 92.0181C120.946 91.5512 120.687 90.3321 120.583 90.7731C120.479 91.214 120.583 91.7328 120.583 91.7328C120.583 91.7328 118.352 89.7874 118.378 90.4618C118.404 91.1362 120.012 93.3928 121.05 93.8338C122.087 94.2748 121.916 94.3423 121.932 93.4966Z" fill="url(#paint32_linear_5_51266)"/>
<path d="M114.297 90.8508C114.297 90.8508 114.263 89.4156 113.519 89.087C112.776 88.7585 111.928 87.0984 111.98 87.9457C112.032 88.7931 112.793 89.1908 112.793 89.1908C112.793 89.1908 111.565 89.6329 112.101 90.3196C112.637 91.0064 113.243 91.1448 113.865 91.456C113.865 91.456 114.034 91.9791 114.462 91.9013C114.89 91.8235 114.522 91.0843 114.297 90.8508Z" fill="url(#paint33_linear_5_51266)"/>
<path d="M140.381 108.672C144.52 110.655 148.451 110.063 151.2 109.65C154.307 109.182 157.3 108.732 158.474 106.41C159.636 104.112 158.598 100.81 156.762 99.0142C154.606 96.9042 152.455 97.9546 150.956 95.8969C149.419 93.7886 151.233 92.0774 149.855 89.7234C148.121 86.7606 144.396 88.0171 142.582 85.0168C141.093 82.5553 142.917 80.5442 141.42 78.9656C139.344 76.7762 133.289 77.9471 132.319 80.5261C131.94 81.5339 132.515 82.2864 132.939 83.7028C134.289 88.2091 131.527 90.7665 131.274 94.8577C130.931 100.385 135.279 106.227 140.381 108.672Z" fill="url(#paint34_linear_5_51266)"/>
<path d="M143.187 155.698C143.187 155.698 139.044 156.223 138.886 157.165C138.702 158.258 143.493 157.298 143.493 157.298C143.493 157.298 144.226 157.057 143.187 155.698Z" fill="url(#paint35_linear_5_51266)"/>
<path d="M142.924 153.458L143.025 155.771C143.025 155.771 142.518 156.413 141.938 155.949L141.476 153.458H142.924Z" fill="url(#paint36_linear_5_51266)"/>
<path d="M136.438 156.818C136.438 156.818 132.295 157.343 132.137 158.285C131.953 159.378 136.744 158.417 136.744 158.417C136.744 158.417 137.477 158.177 136.438 156.818Z" fill="url(#paint37_linear_5_51266)"/>
<path d="M136.174 154.578L136.275 156.891C136.275 156.891 135.769 157.533 135.189 157.069L134.727 154.578H136.174Z" fill="url(#paint38_linear_5_51266)"/>
<path d="M130.587 116.457C130.805 119.802 131.341 124.618 132.787 130.292C133.308 132.333 133.831 134.034 135.008 137.57C136.415 141.792 138.398 147.558 140.982 154.524C141.732 154.638 142.481 154.753 143.231 154.868C144.783 149.212 144.337 144.766 142.744 141.23C141.8 139.136 141.245 139.117 140.274 136.779C139.242 134.295 138.82 131.792 139.081 123.342C139.155 120.949 139.293 117.768 139.572 114.005C136.577 114.822 133.582 115.64 130.587 116.457Z" fill="url(#paint39_linear_5_51266)"/>
<path opacity="0.3" d="M130.587 116.457C130.805 119.802 131.341 124.618 132.787 130.292C133.308 132.333 133.831 134.034 135.008 137.57C136.415 141.792 138.398 147.559 140.982 154.524C141.732 154.638 142.481 154.753 143.231 154.868C144.556 149.589 143.586 146.818 142.38 145.252C141.635 144.285 140.7 143.647 140.017 141.983C139.213 140.025 139.782 139.138 139.365 136.846C138.802 133.755 137.466 133.709 136.994 131.292C136.438 128.442 138.016 127.07 139.081 123.342C139.673 121.267 140.194 118.158 139.572 114.005C136.577 114.823 133.582 115.64 130.587 116.457Z" fill="url(#paint40_linear_5_51266)"/>
<path d="M135.779 115.927C133.894 118.301 128.597 125.608 128.444 136.242C128.301 146.161 132.715 153.226 134.484 155.767C135.221 155.7 135.958 155.633 136.696 155.565C136.882 153.465 136.976 150.312 136.329 146.575C135.364 141.01 133.838 140.409 134.067 137.235C134.355 133.254 136.872 132.615 140.791 125.384C142.903 121.488 145.425 116.833 143.786 115.11C143.475 114.783 141.954 113.446 135.779 115.927Z" fill="url(#paint41_linear_5_51266)"/>
<path d="M133.862 86.7965C131.207 87.2796 129.616 89.1002 129.177 89.6169C128.632 90.2591 127.021 92.354 126.99 97.7134C126.96 102.852 128.427 103.446 128.872 108.321C129.528 115.51 126.762 118.885 128.69 120.506C130.332 121.885 132.328 119.434 137.857 119.7C142.422 119.919 143.301 121.696 147.224 121.251C147.824 121.183 153.063 120.536 153.871 117.795C154.433 115.891 152.366 114.642 149.532 110.032C146.818 105.619 145.484 101.512 144.821 99.4718C142.821 93.3167 143.651 91.634 141.391 89.3836C141.109 89.1029 137.947 86.053 133.862 86.7965Z" fill="url(#paint42_linear_5_51266)"/>
<path d="M136.543 81.9135C136.543 81.9135 136.003 85.6695 138.064 87.686C138.21 87.8292 138.142 88.0759 137.942 88.1181C136.984 88.3193 134.757 88.6437 132.598 87.9181C132.41 87.855 132.368 87.6064 132.522 87.4823C132.974 87.1198 133.734 86.4271 134.139 85.5951C134.739 84.3619 134.846 82.258 134.846 82.258L136.543 81.9135Z" fill="url(#paint43_linear_5_51266)"/>
<g opacity="0.3">
<path d="M149.531 110.032C146.818 105.619 145.484 101.512 144.821 99.4718C142.821 93.3168 143.651 91.6341 141.391 89.3836C141.246 89.2395 140.34 88.3648 138.94 87.6487C139.311 88.8569 139.533 90.2784 139.324 91.8173C138.61 97.064 133.545 98.8883 134.189 102.147C134.778 105.126 139.287 105.003 139.935 108.198C140.602 111.488 136.236 113.648 137.123 115.961C137.979 118.194 142.367 117.021 146.72 119.69C147.382 120.096 147.981 120.553 148.522 121.044C150.303 120.689 153.278 119.805 153.871 117.795C154.433 115.891 152.365 114.642 149.531 110.032Z" fill="url(#paint44_linear_5_51266)"/>
</g>
<path d="M136.608 83.2553C136.608 83.2553 135.677 84.5332 134.217 84.0006C132.91 83.5238 133.69 80.1476 134.727 79.7624C135.073 79.6339 135.708 79.6908 136.132 79.9556C136.431 80.1419 137.228 81.1325 136.771 82.2424C137.101 82.1468 137.392 82.2336 137.465 82.3972C137.557 82.6046 137.277 82.8871 137.214 82.9511C136.995 83.173 136.73 83.235 136.608 83.2553Z" fill="url(#paint45_linear_5_51266)"/>
<path d="M120.397 93.5653C120.889 93.38 121.381 93.1946 121.873 93.0093C122.163 93.536 124.094 96.9258 127.71 97.4407C131.12 97.9263 134.322 95.6131 135.809 93.3455C137.22 91.1949 136.933 89.322 138.254 88.914C139.583 88.5034 141.23 89.98 142.013 90.9922C143.865 93.3863 143.8 96.9577 142.655 99.5189C140.794 103.683 135.794 105.814 131.531 105.381C124.928 104.708 121.868 98.0595 121.353 96.8595C120.794 95.5596 120.532 94.3947 120.397 93.5653Z" fill="url(#paint46_linear_5_51266)"/>
<defs>
<linearGradient id="paint0_linear_5_51266" x1="20.3495" y1="80.3101" x2="26.2442" y2="230.855" gradientUnits="userSpaceOnUse">
<stop stop-color="#FFC444"/>
<stop offset="0.9964" stop-color="#F36F56"/>
</linearGradient>
<linearGradient id="paint1_linear_5_51266" x1="19.1891" y1="121.458" x2="40.6774" y2="152.472" gradientUnits="userSpaceOnUse">
<stop offset="0.0036" stop-color="#E38DDD"/>
<stop offset="1" stop-color="#9571F6"/>
</linearGradient>
<linearGradient id="paint2_linear_5_51266" x1="69.7178" y1="133.04" x2="69.5873" y2="141.52" gradientUnits="userSpaceOnUse">
<stop stop-color="#444B8C"/>
<stop offset="0.9964" stop-color="#26264F"/>
</linearGradient>
<linearGradient id="paint3_linear_5_51266" x1="71.1897" y1="149.868" x2="57.6472" y2="108.864" gradientUnits="userSpaceOnUse">
<stop stop-color="#444B8C"/>
<stop offset="0.9964" stop-color="#26264F"/>
</linearGradient>
<linearGradient id="paint4_linear_5_51266" x1="131.223" y1="145.945" x2="5.35249" y2="145.945" gradientUnits="userSpaceOnUse">
<stop stop-color="#FF9085"/>
<stop offset="1" stop-color="#FB6FBB"/>
</linearGradient>
<linearGradient id="paint5_linear_5_51266" x1="111.233" y1="149.597" x2="109.2" y2="149.844" gradientUnits="userSpaceOnUse">
<stop stop-color="#FF9085"/>
<stop offset="1" stop-color="#FB6FBB"/>
</linearGradient>
<linearGradient id="paint6_linear_5_51266" x1="72.5443" y1="153.869" x2="72.4049" y2="157.464" gradientUnits="userSpaceOnUse">
<stop stop-color="#444B8C"/>
<stop offset="0.9964" stop-color="#26264F"/>
</linearGradient>
<linearGradient id="paint7_linear_5_51266" x1="63.3657" y1="153.514" x2="63.2264" y2="157.108" gradientUnits="userSpaceOnUse">
<stop stop-color="#444B8C"/>
<stop offset="0.9964" stop-color="#26264F"/>
</linearGradient>
<linearGradient id="paint8_linear_5_51266" x1="51.8751" y1="153.068" x2="51.7357" y2="156.663" gradientUnits="userSpaceOnUse">
<stop stop-color="#444B8C"/>
<stop offset="0.9964" stop-color="#26264F"/>
</linearGradient>
<linearGradient id="paint9_linear_5_51266" x1="4.01852" y1="92.0623" x2="119.492" y2="92.0623" gradientUnits="userSpaceOnUse">
<stop offset="0.0036" stop-color="#E38DDD"/>
<stop offset="1" stop-color="#9571F6"/>
</linearGradient>
<linearGradient id="paint10_linear_5_51266" x1="83.2158" y1="7.9375" x2="40.7181" y2="96.5887" gradientUnits="userSpaceOnUse">
<stop stop-color="#AA80F9"/>
<stop offset="0.9964" stop-color="#6165D7"/>
</linearGradient>
<linearGradient id="paint11_linear_5_51266" x1="88.6631" y1="1.81077" x2="41.6613" y2="99.8576" gradientUnits="userSpaceOnUse">
<stop stop-color="#AA80F9"/>
<stop offset="0.9964" stop-color="#6165D7"/>
</linearGradient>
<linearGradient id="paint12_linear_5_51266" x1="36.5557" y1="56.3173" x2="82.2737" y2="56.3173" gradientUnits="userSpaceOnUse">
<stop stop-color="#444B8C"/>
<stop offset="0.9964" stop-color="#26264F"/>
</linearGradient>
<linearGradient id="paint13_linear_5_51266" x1="24.8692" y1="51.7908" x2="29.0487" y2="51.7908" gradientUnits="userSpaceOnUse">
<stop stop-color="#AA80F9"/>
<stop offset="0.9964" stop-color="#6165D7"/>
</linearGradient>
<linearGradient id="paint14_linear_5_51266" x1="89.039" y1="51.7908" x2="93.2186" y2="51.7908" gradientUnits="userSpaceOnUse">
<stop stop-color="#AA80F9"/>
<stop offset="0.9964" stop-color="#6165D7"/>
</linearGradient>
<linearGradient id="paint15_linear_5_51266" x1="64.1162" y1="93.2892" x2="78.8491" y2="93.2892" gradientUnits="userSpaceOnUse">
<stop stop-color="#AA80F9"/>
<stop offset="0.9964" stop-color="#6165D7"/>
</linearGradient>
<linearGradient id="paint16_linear_5_51266" x1="118.536" y1="44.5478" x2="113.782" y2="9.80037" gradientUnits="userSpaceOnUse">
<stop stop-color="#444B8C"/>
<stop offset="0.9964" stop-color="#26264F"/>
</linearGradient>
<linearGradient id="paint17_linear_5_51266" x1="145.601" y1="26.7292" x2="91.5727" y2="20.4802" gradientUnits="userSpaceOnUse">
<stop stop-color="#AA80F9"/>
<stop offset="0.9964" stop-color="#6165D7"/>
</linearGradient>
<linearGradient id="paint18_linear_5_51266" x1="140.113" y1="11.6921" x2="86.0875" y2="68.0148" gradientUnits="userSpaceOnUse">
<stop stop-color="#AA80F9"/>
<stop offset="0.9964" stop-color="#6165D7"/>
</linearGradient>
<linearGradient id="paint19_linear_5_51266" x1="98.1626" y1="16.9378" x2="124.347" y2="28.8025" gradientUnits="userSpaceOnUse">
<stop stop-color="#FF9085"/>
<stop offset="1" stop-color="#FB6FBB"/>
</linearGradient>
<linearGradient id="paint20_linear_5_51266" x1="102.847" y1="25.8496" x2="114.557" y2="21.6329" gradientUnits="userSpaceOnUse">
<stop stop-color="#FF9085"/>
<stop offset="1" stop-color="#FB6FBB"/>
</linearGradient>
<linearGradient id="paint21_linear_5_51266" x1="111.025" y1="17.1376" x2="128.264" y2="40.1423" gradientUnits="userSpaceOnUse">
<stop stop-color="#FF9085"/>
<stop offset="1" stop-color="#FB6FBB"/>
</linearGradient>
<linearGradient id="paint22_linear_5_51266" x1="110.84" y1="27.2039" x2="123.134" y2="29.1454" gradientUnits="userSpaceOnUse">
<stop stop-color="#FF9085"/>
<stop offset="1" stop-color="#FB6FBB"/>
</linearGradient>
<linearGradient id="paint23_linear_5_51266" x1="80.5412" y1="-15.4499" x2="44.8547" y2="57.1287" gradientUnits="userSpaceOnUse">
<stop stop-color="#311944"/>
<stop offset="1" stop-color="#893976"/>
</linearGradient>
<linearGradient id="paint24_linear_5_51266" x1="81.7029" y1="-15.455" x2="46.0176" y2="57.1211" gradientUnits="userSpaceOnUse">
<stop stop-color="#FF9085"/>
<stop offset="1" stop-color="#FB6FBB"/>
</linearGradient>
<linearGradient id="paint25_linear_5_51266" x1="75.4054" y1="-6.20627" x2="48.5706" y2="48.3698" gradientUnits="userSpaceOnUse">
<stop stop-color="#FF9085"/>
<stop offset="1" stop-color="#FB6FBB"/>
</linearGradient>
<linearGradient id="paint26_linear_5_51266" x1="151.132" y1="34.1272" x2="116.082" y2="105.411" gradientUnits="userSpaceOnUse">
<stop stop-color="#311944"/>
<stop offset="1" stop-color="#893976"/>
</linearGradient>
<linearGradient id="paint27_linear_5_51266" x1="128.527" y1="60.8434" x2="150.466" y2="60.8434" gradientUnits="userSpaceOnUse">
<stop stop-color="#FF9085"/>
<stop offset="1" stop-color="#FB6FBB"/>
</linearGradient>
<linearGradient id="paint28_linear_5_51266" x1="146.033" y1="42.9082" x2="119.539" y2="96.7919" gradientUnits="userSpaceOnUse">
<stop stop-color="#FF9085"/>
<stop offset="1" stop-color="#FB6FBB"/>
</linearGradient>
<linearGradient id="paint29_linear_5_51266" x1="120.653" y1="84.7074" x2="119.961" y2="86.5749" gradientUnits="userSpaceOnUse">
<stop stop-color="#444B8C"/>
<stop offset="0.9964" stop-color="#26264F"/>
</linearGradient>
<linearGradient id="paint30_linear_5_51266" x1="116.359" y1="89.6664" x2="120.862" y2="89.6664" gradientUnits="userSpaceOnUse">
<stop stop-color="#444B8C"/>
<stop offset="0.9964" stop-color="#26264F"/>
</linearGradient>
<linearGradient id="paint31_linear_5_51266" x1="113.747" y1="94.8026" x2="133.802" y2="94.8026" gradientUnits="userSpaceOnUse">
<stop stop-color="#FFC444"/>
<stop offset="0.9964" stop-color="#F36F56"/>
</linearGradient>
<linearGradient id="paint32_linear_5_51266" x1="118.378" y1="92.2364" x2="121.985" y2="92.2364" gradientUnits="userSpaceOnUse">
<stop stop-color="#311944"/>
<stop offset="1" stop-color="#A03976"/>
</linearGradient>
<linearGradient id="paint33_linear_5_51266" x1="111.966" y1="89.8084" x2="114.659" y2="89.8084" gradientUnits="userSpaceOnUse">
<stop stop-color="#311944"/>
<stop offset="1" stop-color="#A03976"/>
</linearGradient>
<linearGradient id="paint34_linear_5_51266" x1="136.819" y1="90.7923" x2="152.65" y2="103.445" gradientUnits="userSpaceOnUse">
<stop stop-color="#311944"/>
<stop offset="1" stop-color="#893976"/>
</linearGradient>
<linearGradient id="paint35_linear_5_51266" x1="136.834" y1="151.551" x2="144.006" y2="160.027" gradientUnits="userSpaceOnUse">
<stop stop-color="#444B8C"/>
<stop offset="0.9964" stop-color="#3E4177"/>
</linearGradient>
<linearGradient id="paint36_linear_5_51266" x1="142.131" y1="152.482" x2="142.538" y2="158.269" gradientUnits="userSpaceOnUse">
<stop stop-color="#311944"/>
<stop offset="1" stop-color="#893976"/>
</linearGradient>
<linearGradient id="paint37_linear_5_51266" x1="132.349" y1="155.346" x2="139.521" y2="163.822" gradientUnits="userSpaceOnUse">
<stop stop-color="#444B8C"/>
<stop offset="0.9964" stop-color="#3E4177"/>
</linearGradient>
<linearGradient id="paint38_linear_5_51266" x1="135.337" y1="152.961" x2="135.744" y2="158.747" gradientUnits="userSpaceOnUse">
<stop stop-color="#311944"/>
<stop offset="1" stop-color="#893976"/>
</linearGradient>
<linearGradient id="paint39_linear_5_51266" x1="130.587" y1="134.436" x2="144.192" y2="134.436" gradientUnits="userSpaceOnUse">
<stop stop-color="#444B8C"/>
<stop offset="0.9964" stop-color="#3E4177"/>
</linearGradient>
<linearGradient id="paint40_linear_5_51266" x1="130.587" y1="134.437" x2="143.868" y2="134.437" gradientUnits="userSpaceOnUse">
<stop stop-color="#444B8C"/>
<stop offset="0.9964" stop-color="#3E4177"/>
</linearGradient>
<linearGradient id="paint41_linear_5_51266" x1="128.44" y1="135.112" x2="144.312" y2="135.112" gradientUnits="userSpaceOnUse">
<stop stop-color="#444B8C"/>
<stop offset="0.9964" stop-color="#3E4177"/>
</linearGradient>
<linearGradient id="paint42_linear_5_51266" x1="126.989" y1="104.001" x2="153.964" y2="104.001" gradientUnits="userSpaceOnUse">
<stop stop-color="#FFC444"/>
<stop offset="0.9964" stop-color="#F36F56"/>
</linearGradient>
<linearGradient id="paint43_linear_5_51266" x1="130.772" y1="88.2292" x2="137.679" y2="84.5007" gradientUnits="userSpaceOnUse">
<stop stop-color="#311944"/>
<stop offset="1" stop-color="#A03976"/>
</linearGradient>
<linearGradient id="paint44_linear_5_51266" x1="126.989" y1="104.346" x2="153.963" y2="104.346" gradientUnits="userSpaceOnUse">
<stop stop-color="#FFC444"/>
<stop offset="0.9964" stop-color="#F36F56"/>
</linearGradient>
<linearGradient id="paint45_linear_5_51266" x1="140.527" y1="78.493" x2="135.331" y2="81.7936" gradientUnits="userSpaceOnUse">
<stop stop-color="#311944"/>
<stop offset="1" stop-color="#A03976"/>
</linearGradient>
<linearGradient id="paint46_linear_5_51266" x1="120.397" y1="97.1398" x2="143.468" y2="97.1398" gradientUnits="userSpaceOnUse">
<stop stop-color="#FFC444"/>
<stop offset="0.9964" stop-color="#F36F56"/>
</linearGradient>
</defs>
</svg>
